-------------------------------------------- 
http://www.imdb.com/title/tt2341664/

105 min  -  Horror  -  22 March 2013 (USA)
4,6 Your rating:    -/10   Ratings: 4,6/10 from 511 users   Metascore: 44/100 

SUBTiTLES.......: Bulgarian

Language : English, Mexican


Format                           : AVI
Format/Info                      : Audio Video Interleave
File size                        : 699 MiB
Duration                         : 1h 26mn
Overall bit rate                 : 1 126 Kbps

Video
ID                               : 0
Format                           : MPEG-4 Visual
Format profile                   : Advanced Simple@L5
Format settings, BVOP            : 2
Format settings, QPel            : No
Format settings, GMC             : No warppoints
Format settings, Matrix          : Default (H.263)
Muxing mode                      : Packed bitstream
Codec ID                         : XVID
Codec ID/Hint                    : XviD
Duration                         : 1h 26mn
Bit rate                         : 926 Kbps
Width                            : 640 pixels
Height                           : 272 pixels
Display aspect ratio             : 2.35:1
Frame rate                       : 24.000 fps
Color space                      : YUV
Chroma subsampling               : 4:2:0
Bit depth                        : 8 bits
Scan type                        : Progressive
Compression mode                 : Lossy
Bits/(Pixel*Frame)               : 0.222
Stream size                      : 575 MiB (82%)
Writing library                  : XviD 64

Audio
ID                               : 1
Format                           : AC-3
Format/Info                      : Audio Coding 3
Mode extension                   : CM (complete main)
Codec ID                         : 2000
Duration                         : 1h 26mn
Bit rate mode                    : Constant
Bit rate                         : 192 Kbps
Channel(s)                       : 2 channels
Channel positions                : Front: L R
Sampling rate                    : 44.1 KHz
Bit depth                        : 16 bits
Compression mode                 : Lossy
Delay relative to video          : 69ms
Stream size                      : 119 MiB (17%)
Alignment                        : Split accross interleaves
Interleave, duration             : 70 ms (1.67 video frames)
Interleave, preload duration     : 208 ms
Title                            : comeoutandplay - [1]

--------------------------------------------

More at   
http://publichash.com/

--------------------------------------------	